#N canvas 105 114 549 435 12;
#N canvas 87 44 499 603 BlofeldMonitorUI 0;
#X obj 101 101 cnv 19 283 179 empty empty MIDI\ Input\ Monitor 20 12 0 12 #e0e0e0 #404040 0;
#X obj 132 147 nbx 5 17 -1e+37 1e+37 0 0 empty noteInNote Note 0 -10 0 12 #fcfcfc #000000 #000000 0 256;
#X obj 235 147 nbx 5 17 -1e+37 1e+37 0 0 empty noteInVelocity Velocity 0 -10 0 12 #fcfcfc #000000 #000000 0 256;
#X obj 131 194 nbx 5 17 -1e+37 1e+37 0 0 empty CtrlInCtrl Controller 0 -10 0 12 #fcfcfc #000000 #000000 0 256;
#X obj 234 194 nbx 5 17 -1e+37 1e+37 0 0 empty ControlInValue Value 0 -10 0 12 #fcfcfc #000000 #000000 0 256;
#X obj 131 241 cnv 10 218 18 empty empty empty 20 12 0 12 #ffffff #404040 0;
#X listbox 131 241 31 0 0 2 System\ Exclusive SysEx - 0;
#X coords 0 -1 1 1 285 181 1 100 100;
#X restore 569 101 pd BlofeldMonitorUI;
#X listbox 576 317 31 0 0 2 System\ Exclusive SysEx - 0;
#X msg 578 353 240 62 19 0 32 0 0 89 \$1 247;
#N canvas 107 25 738 444 ModuleParams 0;
#X obj 27 88 hsl 162 19 0 11 0 1 empty \$0-BlofeldModule1 Module\ 1 -2 -10 0 12 #fcfcfc #000000 #000000 16100 1;
#X obj 274 88 hsl 162 19 0 127 0 1 empty \$0-BlofeldModule2 Module\ 2 -2 -10 0 12 #fcfcfc #000000 #000000 10395 1;
#X obj 24 117 i;
#X obj 271 117 i;
#X symbolatom 63 233 10 0 0 0 List - \$0-Text 0;
#X obj 271 175 ctlout;
#X obj 34 25 text define -k \$0-Names;
#A set Bypass \; LP_24dB \; LP_12dB \; BP_24dB \; BP_12dB \; HP_24dB \; HP_12dB \; Notch24dB \; Notch12dB \; Comb+ \; Comb- \; PPG_LP \;;
#X obj 63 146 t b f;
#X msg 110 175 line \$1;
#X msg 63 175 step;
#X obj 63 204 text sequence \$0-Names;
#X obj 464 88 hsl 162 19 0 127 0 1 empty \$0-BlofeldModule3 Module\ 3 -2 -10 0 12 #fcfcfc #000000 #000000 10522 1;
#X obj 461 117 i;
#X obj 461 175 ctlout;
#X obj 654 88 hsl 162 19 0 127 0 1 empty \$0-BlofeldModule4 Module\ 4 -2 -10 0 12 #fcfcfc #000000 #000000 8113 1;
#X obj 651 117 i;
#X obj 651 175 ctlout;
#X obj 24 297 ctlout;
#X msg 24 268 \$1 79 1;
#X msg 271 146 \$1 80 1;
#X msg 461 146 \$1 81 1;
#X msg 651 146 \$1 84 1;
#X connect 0 0 2 0;
#X connect 1 0 3 0;
#X connect 2 0 18 0;
#X connect 2 0 7 0;
#X connect 3 0 19 0;
#X connect 7 0 9 0;
#X connect 7 1 8 0;
#X connect 8 0 10 0;
#X connect 9 0 10 0;
#X connect 10 0 4 0;
#X connect 11 0 12 0;
#X connect 12 0 20 0;
#X connect 14 0 15 0;
#X connect 15 0 21 0;
#X connect 18 0 17 0;
#X connect 19 0 5 0;
#X connect 20 0 13 0;
#X connect 21 0 16 0;
#X restore 201 481 pd ModuleParams;
#N canvas 58 25 752 847 BlofeldModuleUI 0;
#N canvas 67 25 677 484 BlofeldCanvasDesigner 0;
#X obj 101 101 cnv 19 192 94 empty empty Blofeld\ Canvas\ Designer 20 12 0 12 #128689 #ffffff 0;
#X floatatom 410 112 5 0 0 2 Width \$0-Width - 0;
#X floatatom 467 113 5 0 0 2 Height \$0-Height - 0;
#X obj 124 155 nbx 5 17 -1e+37 1e+37 0 1 \$0-Width empty Width 0 -10 0 12 #000000 #00ff04 #ffffff 401 256;
#X obj 207 155 nbx 5 17 -1e+37 1e+37 0 1 \$0-Height empty Height 0 -10 0 12 #000000 #00ff04 #ffffff 242 256;
#X obj 410 170 pack f f;
#X obj 467 141 t b f;
#X msg 410 199 vis_size \$1 \$2;
#X obj 410 228 s \$0-BlofeldModuleCanvas;
#X obj 104 219 cnv 19 401 242 empty \$0-BlofeldModuleCanvas empty 20 12 0 12 #e0e0e0 #404040 0;
#X connect 1 0 5 0;
#X connect 2 0 6 0;
#X connect 5 0 7 0;
#X connect 6 0 5 0;
#X connect 6 1 5 1;
#X connect 7 0 8 0;
#X coords 0 -1 1 1 194 96 1 100 100;
#X restore 520 96 pd BlofeldCanvasDesigner;
#X obj 101 101 cnv 19 401 242 empty empty Filter\ 2 20 12 0 12 #e0e0e0 #404040 0;
#X obj 361 132 bng 19 250 50 0 empty empty Reset 0 -10 0 12 #fcfcfc #000000 #000000;
#X obj 361 394 s \$0-BlofeldModule1Reset;
#X obj 401 173 vsl 70 128 0 127 0 0 \$0-BlofeldModule4 \$0-BlofeldModule4Reset Env\ Amount 0 -9 0 12 #fcfcfc #000000 #000000 0 1;
#X obj 311 173 vsl 70 128 0 11 0 1 \$0-BlofeldModule1 \$0-BlofeldModule1Reset Type 0 -9 0 12 #fcfcfc #000000 #000000 12700 1;
#X obj 221 173 vsl 70 128 0 127 0 0 \$0-BlofeldModule3 \$0-BlofeldModule3Reset Resonance 0 -9 0 12 #fcfcfc #000000 #000000 0 1;
#X obj 131 173 vsl 70 128 0 127 0 0 \$0-BlofeldModule2 \$0-BlofeldModule2Reset Cutoff 0 -9 0 12 #fcfcfc #000000 #000000 0 1;
#X obj 311 315 cnv 15 72 18 empty empty empty 20 12 0 12 #ffffff #404040 0;
#X symbolatom 311 315 10 0 0 0 - \$0-Text - 0;
#X obj 182 132 bng 19 250 50 0 empty empty Reset 0 -10 0 12 #fcfcfc #000000 #000000;
#X obj 272 132 bng 19 250 50 0 empty empty Reset 0 -10 0 12 #fcfcfc #000000 #000000;
#X msg 272 435 0;
#X obj 452 132 bng 19 250 50 0 empty empty Reset 0 -10 0 12 #fcfcfc #000000 #000000;
#X obj 182 394 s \$0-BlofeldModule2Reset;
#X obj 272 464 s \$0-BlofeldModule3Reset;
#X obj 452 464 s \$0-BlofeldModule4Reset;
#X msg 182 365 127;
#X msg 361 365 1;
#X msg 452 435 64;
#X connect 2 0 18 0;
#X connect 10 0 17 0;
#X connect 11 0 12 0;
#X connect 12 0 15 0;
#X connect 13 0 19 0;
#X connect 17 0 14 0;
#X connect 18 0 3 0;
#X connect 19 0 16 0;
#X coords 0 -1 1 1 403 244 1 100 100;
#X restore 101 101 pd BlofeldModuleUI;
#X coords 0 -1 1 1 405 246 1 100 100;
