#N canvas 568 329 1432 514 12;
#N canvas 87 44 499 603 BlofeldMonitorUI 0;
#X obj 101 101 cnv 19 283 179 empty empty MIDI\ Input\ Monitor 20 12 0 12 #e0e0e0 #404040 0;
#X obj 132 147 nbx 5 17 -1e+37 1e+37 0 0 empty noteInNote Note 0 -10 0 12 #fcfcfc #000000 #000000 0 256;
#X obj 235 147 nbx 5 17 -1e+37 1e+37 0 0 empty noteInVelocity Velocity 0 -10 0 12 #fcfcfc #000000 #000000 0 256;
#X obj 131 194 nbx 5 17 -1e+37 1e+37 0 0 empty CtrlInCtrl Controller 0 -10 0 12 #fcfcfc #000000 #000000 0 256;
#X obj 234 194 nbx 5 17 -1e+37 1e+37 0 0 empty ControlInValue Value 0 -10 0 12 #fcfcfc #000000 #000000 0 256;
#X obj 131 241 cnv 10 218 18 empty empty empty 20 12 0 12 #ffffff #404040 0;
#X listbox 131 241 31 0 0 2 System\ Exclusive SysEx - 0;
#X coords 0 -1 1 1 285 181 1 100 100;
#X restore 159 -138 pd BlofeldMonitorUI;
#X listbox 406 317 31 0 0 2 System\ Exclusive SysEx - 0;
#X msg 408 353 240 62 19 0 32 0 0 89 \$1 247;
#N canvas 633 429 1440 443 BlofeldModuleUI 0;
#N canvas 67 25 677 484 BlofeldCanvasDesigner 0;
#X obj 101 101 cnv 19 192 94 empty empty Blofeld\ Canvas\ Designer 20 12 0 12 #128689 #ffffff 0;
#X floatatom 410 112 5 0 0 2 Width \$0-Width - 0;
#X floatatom 467 113 5 0 0 2 Height \$0-Height - 0;
#X obj 124 155 nbx 5 17 -1e+37 1e+37 0 1 \$0-Width empty Width 0 -10 0 12 #000000 #00ff04 #ffffff 912 256;
#X obj 207 155 nbx 5 17 -1e+37 1e+37 0 1 \$0-Height empty Height 0 -10 0 12 #000000 #00ff04 #ffffff 344 256;
#X obj 410 170 pack f f;
#X obj 467 141 t b f;
#X msg 410 199 vis_size \$1 \$2;
#X obj 410 228 s \$0-BlofeldModuleCanvas;
#X obj 104 219 cnv 19 912 344 empty \$0-BlofeldModuleCanvas empty 20 12 0 12 #e0e0e0 #404040 0;
#X connect 1 0 5 0;
#X connect 2 0 6 0;
#X connect 5 0 7 0;
#X connect 6 0 5 0;
#X connect 6 1 5 1;
#X connect 7 0 8 0;
#X coords 0 -1 1 1 194 96 1 100 100;
#X restore 1111 307 pd BlofeldCanvasDesigner;
#X obj 101 101 cnv 19 910 344 empty empty Blofeld\ Sequencer\ Filter\ 1 20 12 0 12 #ae0505 #ffffff 0;
#X obj 139 285 nbx 3 17 0 127 0 1 empty empty 1 0 -10 0 12 #000000 #00ff04 #ffffff 0 256;
#X obj 139 240 bng 24 250 50 0 empty \$0-Step0 empty 0 -10 0 12 #202020 #ffa300 #000000;
#X obj 189 285 nbx 3 17 0 127 0 1 empty empty 2 0 -10 0 12 #000000 #00ff04 #ffffff 0 256;
#X obj 189 240 bng 24 250 50 0 empty \$0-Step1 empty 0 -10 0 12 #202020 #ffa300 #000000;
#X obj 239 285 nbx 3 17 0 127 0 1 empty empty 3 0 -10 0 12 #000000 #00ff04 #ffffff 0 256;
#X obj 239 240 bng 24 250 50 0 empty \$0-Step2 empty 0 -10 0 12 #202020 #ffa300 #000000;
#X obj 289 285 nbx 3 17 0 127 0 1 empty empty 4 0 -10 0 12 #000000 #00ff04 #ffffff 0 256;
#X obj 289 240 bng 24 250 50 0 empty \$0-Step3 empty 0 -10 0 12 #202020 #ffa300 #000000;
#X obj 353 285 nbx 3 17 0 127 0 1 empty empty 5 0 -10 0 12 #000000 #00ff04 #ffffff 0 256;
#X obj 353 240 bng 24 250 50 0 empty \$0-Step4 empty 0 -10 0 12 #202020 #ffa300 #000000;
#X obj 403 285 nbx 3 17 0 127 0 1 empty empty 6 0 -10 0 12 #000000 #00ff04 #ffffff 0 256;
#X obj 403 240 bng 24 250 50 0 empty \$0-Step5 empty 0 -10 0 12 #202020 #ffa300 #000000;
#X obj 453 285 nbx 3 17 0 127 0 1 empty empty 7 0 -10 0 12 #000000 #00ff04 #ffffff 0 256;
#X obj 453 240 bng 24 250 50 0 empty \$0-Step6 empty 0 -10 0 12 #202020 #ffa300 #000000;
#X obj 503 285 nbx 3 17 0 127 0 1 empty empty 8 0 -10 0 12 #000000 #00ff04 #ffffff 0 256;
#X obj 503 240 bng 24 250 50 0 empty \$0-Step7 empty 0 -10 0 12 #202020 #ffa300 #000000;
#X obj 567 285 nbx 3 17 0 127 0 1 empty empty 9 0 -10 0 12 #000000 #00ff04 #ffffff 0 256;
#X obj 567 240 bng 24 250 50 0 empty \$0-Step8 empty 0 -10 0 12 #202020 #ffa300 #000000;
#X obj 617 285 nbx 3 17 0 127 0 1 empty empty 10 0 -10 0 12 #000000 #00ff04 #ffffff 0 256;
#X obj 617 240 bng 24 250 50 0 empty \$0-Step9 empty 0 -10 0 12 #202020 #ffa300 #000000;
#X obj 667 285 nbx 3 17 0 127 0 1 empty empty 11 0 -10 0 12 #000000 #00ff04 #ffffff 0 256;
#X obj 667 240 bng 24 250 50 0 empty \$0-Step10 empty 0 -10 0 12 #202020 #ffa300 #000000;
#X obj 717 285 nbx 3 17 0 127 0 1 empty empty 12 0 -10 0 12 #000000 #00ff04 #ffffff 0 256;
#X obj 717 240 bng 24 250 50 0 empty \$0-Step11 empty 0 -10 0 12 #202020 #ffa300 #000000;
#X obj 781 285 nbx 3 17 0 127 0 1 empty empty 13 0 -10 0 12 #000000 #00ff04 #ffffff 0 256;
#X obj 781 240 bng 24 250 50 0 empty \$0-Step12 empty 0 -10 0 12 #202020 #ffa300 #000000;
#X obj 831 285 nbx 3 17 0 127 0 1 empty empty 14 0 -10 0 12 #000000 #00ff04 #ffffff 0 256;
#X obj 831 240 bng 24 250 50 0 empty \$0-Step13 empty 0 -10 0 12 #202020 #ffa300 #000000;
#X obj 881 285 nbx 3 17 0 127 0 1 empty empty 15 0 -10 0 12 #000000 #00ff04 #ffffff 0 256;
#X obj 881 240 bng 24 250 50 0 empty \$0-Step14 empty 0 -10 0 12 #202020 #ffa300 #000000;
#X obj 931 285 nbx 3 17 0 127 0 1 empty empty 16 0 -10 0 12 #000000 #00ff04 #ffffff 0 256;
#X obj 931 240 bng 24 250 50 0 empty \$0-Step15 empty 0 -10 0 12 #202020 #ffa300 #000000;
#X obj 139 398 nbx 3 17 0 127 0 1 empty empty 17 0 -10 0 12 #000000 #00ff04 #ffffff 0 256;
#X obj 139 353 bng 24 250 50 0 empty \$0-Step16 empty 0 -10 0 12 #202020 #ffa300 #000000;
#X obj 189 398 nbx 3 17 0 127 0 1 empty empty 18 0 -10 0 12 #000000 #00ff04 #ffffff 0 256;
#X obj 189 353 bng 24 250 50 0 empty \$0-Step17 empty 0 -10 0 12 #202020 #ffa300 #000000;
#X obj 239 398 nbx 3 17 0 127 0 1 empty empty 19 0 -10 0 12 #000000 #00ff04 #ffffff 0 256;
#X obj 239 353 bng 24 250 50 0 empty \$0-Step18 empty 0 -10 0 12 #202020 #ffa300 #000000;
#X obj 289 398 nbx 3 17 0 127 0 1 empty empty 20 0 -10 0 12 #000000 #00ff04 #ffffff 0 256;
#X obj 289 353 bng 24 250 50 0 empty \$0-Step19 empty 0 -10 0 12 #202020 #ffa300 #000000;
#X obj 353 398 nbx 3 17 0 127 0 1 empty empty 21 0 -10 0 12 #000000 #00ff04 #ffffff 0 256;
#X obj 353 353 bng 24 250 50 0 empty \$0-Step20 empty 0 -10 0 12 #202020 #ffa300 #000000;
#X obj 403 398 nbx 3 17 0 127 0 1 empty empty 22 0 -10 0 12 #000000 #00ff04 #ffffff 0 256;
#X obj 403 353 bng 24 250 50 0 empty \$0-Step21 empty 0 -10 0 12 #202020 #ffa300 #000000;
#X obj 453 398 nbx 3 17 0 127 0 1 empty empty 23 0 -10 0 12 #000000 #00ff04 #ffffff 0 256;
#X obj 453 353 bng 24 250 50 0 empty \$0-Step22 empty 0 -10 0 12 #202020 #ffa300 #000000;
#X obj 503 398 nbx 3 17 0 127 0 1 empty empty 24 0 -10 0 12 #000000 #00ff04 #ffffff 0 256;
#X obj 503 353 bng 24 250 50 0 empty \$0-Step23 empty 0 -10 0 12 #202020 #ffa300 #000000;
#X obj 567 398 nbx 3 17 0 127 0 1 empty empty 25 0 -10 0 12 #000000 #00ff04 #ffffff 0 256;
#X obj 567 353 bng 24 250 50 0 empty \$0-Step24 empty 0 -10 0 12 #202020 #ffa300 #000000;
#X obj 617 398 nbx 3 17 0 127 0 1 empty empty 26 0 -10 0 12 #000000 #00ff04 #ffffff 0 256;
#X obj 617 353 bng 24 250 50 0 empty \$0-Step25 empty 0 -10 0 12 #202020 #ffa300 #000000;
#X obj 667 398 nbx 3 17 0 127 0 1 empty empty 27 0 -10 0 12 #000000 #00ff04 #ffffff 0 256;
#X obj 667 353 bng 24 250 50 0 empty \$0-Step26 empty 0 -10 0 12 #202020 #ffa300 #000000;
#X obj 717 398 nbx 3 17 0 127 0 1 empty empty 28 0 -10 0 12 #000000 #00ff04 #ffffff 0 256;
#X obj 717 353 bng 24 250 50 0 empty \$0-Step27 empty 0 -10 0 12 #202020 #ffa300 #000000;
#X obj 781 398 nbx 3 17 0 127 0 1 empty empty 29 0 -10 0 12 #000000 #00ff04 #ffffff 0 256;
#X obj 781 353 bng 24 250 50 0 empty \$0-Step28 empty 0 -10 0 12 #202020 #ffa300 #000000;
#X obj 831 398 nbx 3 17 0 127 0 1 empty empty 30 0 -10 0 12 #000000 #00ff04 #ffffff 0 256;
#X obj 831 353 bng 24 250 50 0 empty \$0-Step29 empty 0 -10 0 12 #202020 #ffa300 #000000;
#X obj 881 398 nbx 3 17 0 127 0 1 empty empty 31 0 -10 0 12 #000000 #00ff04 #ffffff 0 256;
#X obj 881 353 bng 24 250 50 0 empty \$0-Step30 empty 0 -10 0 12 #202020 #ffa300 #000000;
#X obj 931 398 nbx 3 17 0 127 0 1 empty empty 32 0 -10 0 12 #000000 #00ff04 #ffffff 0 256;
#X obj 931 353 bng 24 250 50 0 empty \$0-Step31 empty 0 -10 0 12 #202020 #ffa300 #000000;
#X msg 139 463 \$1 0;
#X msg 189 463 \$1 1;
#X msg 239 463 \$1 2;
#X msg 289 463 \$1 3;
#X msg 353 463 \$1 4;
#X msg 403 463 \$1 5;
#X msg 453 463 \$1 6;
#X msg 503 463 \$1 7;
#X msg 567 463 \$1 8;
#X msg 617 463 \$1 9;
#X msg 667 463 \$1 10;
#X msg 717 463 \$1 11;
#X msg 781 463 \$1 12;
#X msg 831 463 \$1 13;
#X msg 881 463 \$1 14;
#X msg 931 463 \$1 15;
#X msg 139 502 \$1 16;
#X msg 189 502 \$1 17;
#X msg 239 502 \$1 18;
#X msg 289 502 \$1 19;
#X msg 353 502 \$1 20;
#X msg 403 502 \$1 21;
#X msg 453 502 \$1 22;
#X msg 503 502 \$1 23;
#X msg 567 502 \$1 24;
#X msg 617 502 \$1 25;
#X msg 667 502 \$1 26;
#X msg 717 502 \$1 27;
#X msg 781 502 \$1 28;
#X msg 831 502 \$1 29;
#X msg 881 502 \$1 30;
#X msg 931 502 \$1 31;
#X obj 139 541 unpack f f;
#X obj 139 570 array set \$0-StepSequence;
#X obj 139 178 tgl 32 0 \$0-SequenceRun empty Run 0 -10 0 12 #000000 #00ff04 #ffffff 0 1;
#X obj 256 193 nbx 5 17 1 5000 0 1 \$0-SequenceTime empty Step\ Time\ (ms) 0 -10 0 12 #000000 #00ff04 #ffffff 250 256;
#X obj 192 193 nbx 3 17 1 32 0 1 \$0-SequenceLength empty Steps 0 -10 0 12 #000000 #00ff04 #ffffff 32 256;
#X connect 2 0 66 0;
#X connect 4 0 67 0;
#X connect 6 0 68 0;
#X connect 8 0 69 0;
#X connect 10 0 70 0;
#X connect 12 0 71 0;
#X connect 14 0 72 0;
#X connect 16 0 73 0;
#X connect 18 0 74 0;
#X connect 20 0 75 0;
#X connect 22 0 76 0;
#X connect 24 0 77 0;
#X connect 26 0 78 0;
#X connect 28 0 79 0;
#X connect 30 0 80 0;
#X connect 32 0 81 0;
#X connect 34 0 82 0;
#X connect 36 0 83 0;
#X connect 38 0 84 0;
#X connect 40 0 85 0;
#X connect 42 0 86 0;
#X connect 44 0 87 0;
#X connect 46 0 88 0;
#X connect 48 0 89 0;
#X connect 50 0 90 0;
#X connect 52 0 91 0;
#X connect 54 0 92 0;
#X connect 56 0 93 0;
#X connect 58 0 94 0;
#X connect 60 0 95 0;
#X connect 62 0 96 0;
#X connect 64 0 97 0;
#X connect 66 0 98 0;
#X connect 67 0 98 0;
#X connect 68 0 98 0;
#X connect 69 0 98 0;
#X connect 70 0 98 0;
#X connect 71 0 98 0;
#X connect 72 0 98 0;
#X connect 73 0 98 0;
#X connect 74 0 98 0;
#X connect 75 0 98 0;
#X connect 76 0 98 0;
#X connect 77 0 98 0;
#X connect 78 0 98 0;
#X connect 79 0 98 0;
#X connect 80 0 98 0;
#X connect 81 0 98 0;
#X connect 82 0 98 0;
#X connect 83 0 98 0;
#X connect 84 0 98 0;
#X connect 85 0 98 0;
#X connect 86 0 98 0;
#X connect 87 0 98 0;
#X connect 88 0 98 0;
#X connect 89 0 98 0;
#X connect 90 0 98 0;
#X connect 91 0 98 0;
#X connect 92 0 98 0;
#X connect 93 0 98 0;
#X connect 94 0 98 0;
#X connect 95 0 98 0;
#X connect 96 0 98 0;
#X connect 97 0 98 0;
#X connect 98 0 99 0;
#X connect 98 1 99 1;
#X coords 0 -1 1 1 912 346 1 100 100;
#X restore 101 101 pd BlofeldModuleUI;
#N canvas 0 25 1440 347 ModuleParams 0;
#X obj 41 440 bng 24 250 50 0 \$0-Step0 empty empty 0 -10 0 12 #202020 #ffa300 #000000;
#X obj 91 440 bng 24 250 50 0 \$0-Step1 empty empty 0 -10 0 12 #202020 #ffa300 #000000;
#X obj 141 440 bng 24 250 50 0 \$0-Step2 empty empty 0 -10 0 12 #202020 #ffa300 #000000;
#X obj 191 440 bng 24 250 50 0 \$0-Step3 empty empty 0 -10 0 12 #202020 #ffa300 #000000;
#X obj 255 440 bng 24 250 50 0 \$0-Step4 empty empty 0 -10 0 12 #202020 #ffa300 #000000;
#X obj 305 440 bng 24 250 50 0 \$0-Step5 empty empty 0 -10 0 12 #202020 #ffa300 #000000;
#X obj 355 440 bng 24 250 50 0 \$0-Step6 empty empty 0 -10 0 12 #202020 #ffa300 #000000;
#X obj 405 440 bng 24 250 50 0 \$0-Step7 empty empty 0 -10 0 12 #202020 #ffa300 #000000;
#X obj 499 440 bng 24 250 50 0 \$0-Step8 empty empty 0 -10 0 12 #202020 #ffa300 #000000;
#X obj 549 440 bng 24 250 50 0 \$0-Step9 empty empty 0 -10 0 12 #202020 #ffa300 #000000;
#X obj 599 440 bng 24 250 50 0 \$0-Step10 empty empty 0 -10 0 12 #202020 #ffa300 #000000;
#X obj 649 440 bng 24 250 50 0 \$0-Step11 empty empty 0 -10 0 12 #202020 #ffa300 #000000;
#X obj 713 440 bng 24 250 50 0 \$0-Step12 empty empty 0 -10 0 12 #202020 #ffa300 #000000;
#X obj 763 440 bng 24 250 50 0 \$0-Step13 empty empty 0 -10 0 12 #202020 #ffa300 #000000;
#X obj 813 440 bng 24 250 50 0 \$0-Step14 empty empty 0 -10 0 12 #202020 #ffa300 #000000;
#X obj 863 440 bng 24 250 50 0 \$0-Step15 empty empty 0 -10 0 12 #202020 #ffa300 #000000;
#X obj 41 513 bng 24 250 50 0 \$0-Step16 empty empty 0 -10 0 12 #202020 #ffa300 #000000;
#X obj 91 513 bng 24 250 50 0 \$0-Step17 empty empty 0 -10 0 12 #202020 #ffa300 #000000;
#X obj 141 513 bng 24 250 50 0 \$0-Step18 empty empty 0 -10 0 12 #202020 #ffa300 #000000;
#X obj 191 513 bng 24 250 50 0 \$0-Step19 empty empty 0 -10 0 12 #202020 #ffa300 #000000;
#X obj 255 513 bng 24 250 50 0 \$0-Step20 empty empty 0 -10 0 12 #202020 #ffa300 #000000;
#X obj 305 513 bng 24 250 50 0 \$0-Step21 empty empty 0 -10 0 12 #202020 #ffa300 #000000;
#X obj 355 513 bng 24 250 50 0 \$0-Step22 empty empty 0 -10 0 12 #202020 #ffa300 #000000;
#X obj 405 513 bng 24 250 50 0 \$0-Step23 empty empty 0 -10 0 12 #202020 #ffa300 #000000;
#X obj 499 513 bng 24 250 50 0 \$0-Step24 empty empty 0 -10 0 12 #202020 #ffa300 #000000;
#X obj 549 513 bng 24 250 50 0 \$0-Step25 empty empty 0 -10 0 12 #202020 #ffa300 #000000;
#X obj 599 513 bng 24 250 50 0 \$0-Step26 empty empty 0 -10 0 12 #202020 #ffa300 #000000;
#X obj 649 513 bng 24 250 50 0 \$0-Step27 empty empty 0 -10 0 12 #202020 #ffa300 #000000;
#X obj 713 513 bng 24 250 50 0 \$0-Step28 empty empty 0 -10 0 12 #202020 #ffa300 #000000;
#X obj 763 513 bng 24 250 50 0 \$0-Step29 empty empty 0 -10 0 12 #202020 #ffa300 #000000;
#X obj 813 513 bng 24 250 50 0 \$0-Step30 empty empty 0 -10 0 12 #202020 #ffa300 #000000;
#X obj 863 513 bng 24 250 50 0 \$0-Step31 empty empty 0 -10 0 12 #202020 #ffa300 #000000;
#X obj 41 45 tgl 32 0 empty \$0-SequenceRun Run 0 -10 0 12 #000000 #00ff04 #000000 0 1;
#X obj 61 130 nbx 3 17 1 32 0 1 empty \$0-SequenceLength Steps 0 -10 0 12 #000000 #00ff04 #000000 32 256;
#X obj 101 60 nbx 3 17 1 32 0 1 empty \$0-SequenceTime Step\ Time\ (ms) 0 -10 0 12 #000000 #00ff04 #000000 250 256;
#X msg 41 332 \$1 69 1;
#X obj 41 361 ctlout 1;
#X obj 41 87 metro 500;
#X obj 41 216 else/count;
#X floatatom 88 246 5 0 0 0 - - - 0;
#X obj 61 158 - 1;
#X msg 61 187 max \$1;
#N canvas 0 22 450 278 (subpatch) 0;
#X array \$0-StepSequence 32 float 3;
#A 0 0 0 0 0 0 0 0 0 0 0 0 0 0 0 0 0 0 0 0 0 0 0 0 0 0 0 0 0 0 0 0 0;
#X coords 0 127 32 0 200 140 1 0 0;
#X restore 349 42 graph;
#X obj 41 274 array get \$0-StepSequence;
#X msg 41 245 \$1 1;
#X floatatom 91 305 5 0 0 0 - - - 0;
#X obj 41 303 i;
#X obj 41 400 select 0 1 2 3 4 5 6 7;
#X obj 499 401 select 8 9 10 11 12 13 14 15;
#X obj 41 474 select 16 17 18 19 20 21 22 23;
#X obj 499 475 select 24 25 26 27 28 29 30 31;
#X connect 32 0 37 0;
#X connect 33 0 40 0;
#X connect 34 0 37 1;
#X connect 35 0 36 0;
#X connect 37 0 38 0;
#X connect 38 0 39 0;
#X connect 38 0 44 0;
#X connect 38 0 47 0;
#X connect 40 0 41 0;
#X connect 41 0 38 0;
#X connect 43 0 45 0;
#X connect 43 0 46 0;
#X connect 44 0 43 0;
#X connect 46 0 35 0;
#X connect 47 0 0 0;
#X connect 47 1 1 0;
#X connect 47 2 2 0;
#X connect 47 3 3 0;
#X connect 47 4 4 0;
#X connect 47 5 5 0;
#X connect 47 6 6 0;
#X connect 47 7 7 0;
#X connect 47 8 48 0;
#X connect 47 8 49 0;
#X connect 48 0 8 0;
#X connect 48 1 9 0;
#X connect 48 2 10 0;
#X connect 48 3 11 0;
#X connect 48 4 12 0;
#X connect 48 5 13 0;
#X connect 48 6 14 0;
#X connect 48 7 15 0;
#X connect 49 0 16 0;
#X connect 49 1 17 0;
#X connect 49 2 18 0;
#X connect 49 3 19 0;
#X connect 49 4 20 0;
#X connect 49 5 21 0;
#X connect 49 6 22 0;
#X connect 49 7 23 0;
#X connect 49 8 50 0;
#X connect 50 0 24 0;
#X connect 50 1 25 0;
#X connect 50 2 26 0;
#X connect 50 3 27 0;
#X connect 50 4 28 0;
#X connect 50 5 29 0;
#X connect 50 6 30 0;
#X connect 50 7 31 0;
#X restore 538 27 pd ModuleParams;
#X coords 0 -1 1 1 914 348 1 100 100;
